<?xml version="1.0" encoding="utf-8"?>
<svg xmlns="http://www.w3.org/2000/svg" >

    <svg viewBox="0 0 9 9" id="info">
        <path d="M4.5 0.5625C2.32559 0.5625 0.5625 2.32559 0.5625 4.5C0.5625 6.67441 2.32559 8.4375 4.5 8.4375C6.67441 8.4375 8.4375 6.67441 8.4375 4.5C8.4375 2.32559 6.67441 0.5625 4.5 0.5625ZM4.5 7.76953C2.69473 7.76953 1.23047 6.30527 1.23047 4.5C1.23047 2.69473 2.69473 1.23047 4.5 1.23047C6.30527 1.23047 7.76953 2.69473 7.76953 4.5C7.76953 6.30527 6.30527 7.76953 4.5 7.76953Z" fill="#333333"/>
        <path d="M4.07812 2.95312C4.07813 3.06501 4.12257 3.17232 4.20169 3.25144C4.28081 3.33055 4.38811 3.375 4.5 3.375C4.61189 3.375 4.71919 3.33055 4.79831 3.25144C4.87743 3.17232 4.92188 3.06501 4.92188 2.95312C4.92188 2.84124 4.87743 2.73393 4.79831 2.65481C4.71919 2.5757 4.61189 2.53125 4.5 2.53125C4.38811 2.53125 4.28081 2.5757 4.20169 2.65481C4.12257 2.73393 4.07813 2.84124 4.07812 2.95312ZM4.71094 3.9375H4.28906C4.25039 3.9375 4.21875 3.96914 4.21875 4.00781V6.39844C4.21875 6.43711 4.25039 6.46875 4.28906 6.46875H4.71094C4.74961 6.46875 4.78125 6.43711 4.78125 6.39844V4.00781C4.78125 3.96914 4.74961 3.9375 4.71094 3.9375Z" fill="#333333"/>
    </svg>
    <svg viewBox="0 0 3 14" id="history-info">
        <circle cx="1.4" cy="1.4" r="1.4" fill="black"/>
        <circle cx="1.4" cy="7.0001" r="1.4" fill="black"/>
        <circle cx="1.4" cy="12.5997" r="1.4" fill="black"/>
    </svg>
    <svg viewBox="0 0 19 19" id="close">
        <path d="M15.8346 15.8337L3.16797 3.16699M15.8346 3.16699L3.16797 15.8337" stroke="#828282" stroke-width="1.58333" stroke-linecap="round"/>
    </svg>
    <svg viewBox="0 0 24 24" id="eth">
        <path d="M12.036 0.130042V0.141865C12.0478 0.200978 12.0478 0.271914 12.0478 0.34285V8.86699C12.036 8.91428 12.0005 8.9261 11.965 8.94975C11.7168 9.06797 11.4803 9.17438 11.232 9.28078C10.8892 9.43448 10.5345 9.59999 10.1916 9.75369L8.95026 10.3212C8.6074 10.4749 8.26455 10.6286 7.93351 10.7823C7.53154 10.9714 7.11775 11.1488 6.71578 11.3379C6.37292 11.4916 6.03006 11.6571 5.67538 11.8108C5.39164 11.9409 5.1079 12.0591 4.83598 12.1892C4.81233 12.201 4.78868 12.2128 4.76504 12.2128C4.75322 12.2128 4.75322 12.2128 4.74139 12.201L5.06061 11.669C5.67538 10.6522 6.27834 9.64728 6.89312 8.63054C7.54336 7.54285 8.20543 6.45517 8.85568 5.36748C9.45864 4.36255 10.0734 3.35763 10.6764 2.3527C11.1138 1.6197 11.5631 0.886692 12.0005 0.153687C12.0123 0.130042 12.0242 0.118219 12.0242 0.094574H12.036C12.0242 0.106397 12.036 0.118219 12.036 0.130042Z" fill="#8A92B2"/>
        <path d="M19.2946 12.201L19.3064 12.2128L17.5685 13.2414L12.1064 16.469C12.0827 16.4808 12.0591 16.4926 12.0473 16.5044C12.0118 16.5044 12.0118 16.469 12.0118 16.4571V16.3507V9.04432C12.0118 9.00885 12.0118 8.96156 12.0236 8.9261C12.0355 8.87881 12.0709 8.89063 12.1064 8.90245C12.2601 8.97339 12.4256 9.04432 12.5793 9.11526C13.0404 9.32807 13.5015 9.54087 13.9625 9.74186C14.3645 9.9192 14.7547 10.1084 15.1566 10.2857C15.5586 10.463 15.9606 10.6522 16.3625 10.8295C16.7054 10.9832 17.0601 11.1488 17.4029 11.3025C17.7458 11.4561 18.1005 11.6217 18.4433 11.7754C18.7153 11.8936 18.9872 12.0236 19.2591 12.1419C19.2591 12.1773 19.2709 12.1891 19.2946 12.201Z" fill="#454A75"/>
        <path d="M12.0355 23.8463C12.0355 23.8581 12.0236 23.8699 12.0236 23.8818H12.0118C12.0118 23.8581 11.9882 23.8463 11.9763 23.8226C11.2433 22.7941 10.5103 21.7537 9.77733 20.7251C9.0325 19.6729 8.27585 18.6089 7.53102 17.5566C6.80984 16.5399 6.07684 15.5113 5.35565 14.4946C5.16649 14.2226 4.97733 13.9625 4.78817 13.6906C4.77634 13.667 4.76452 13.6552 4.74088 13.6197C4.77634 13.6197 4.79999 13.6433 4.81181 13.6552C5.84038 14.2581 6.85713 14.8611 7.8857 15.464C9.06797 16.1616 10.2384 16.8591 11.4207 17.5566L12.0236 17.9113C12.0473 17.935 12.0473 17.9586 12.0473 17.9823V23.6808C12.0473 23.7399 12.0473 23.799 12.0355 23.8463Z" fill="#8A92B2"/>
        <path d="M4.72906 12.2246V12.2128C5.10739 12.0473 5.47389 11.8699 5.85222 11.7044C6.33695 11.4798 6.82168 11.267 7.3064 11.0423C7.67291 10.8768 8.05123 10.6995 8.41773 10.534C8.96158 10.2857 9.4936 10.0492 10.0374 9.80097C10.4039 9.63545 10.7704 9.46994 11.1488 9.2926C11.4089 9.17437 11.6808 9.05614 11.9409 8.93792C11.9645 8.92609 12 8.91427 12.0118 8.89062C12.0236 8.89062 12.0236 8.90245 12.0118 8.91427V16.4217C12.0118 16.4571 12 16.4926 12.0236 16.5162C12 16.5517 11.9764 16.5162 11.9645 16.5044C11.8581 16.4453 11.7517 16.3862 11.6453 16.3153C9.36355 14.9675 7.06995 13.6079 4.78818 12.2601C4.77636 12.2483 4.75271 12.2364 4.72906 12.2246Z" fill="#62688F"/>
        <path d="M19.2709 13.6197H19.2828C19.2828 13.6433 19.2591 13.667 19.2473 13.6906C17.0719 16.7527 14.8966 19.8266 12.7212 22.8887C12.4966 23.2079 12.2601 23.5271 12.0355 23.8463C12.0237 23.8345 12.0237 23.8226 12.0237 23.8108V23.7399V18.0059V17.8995C12.5202 17.6039 13.0049 17.3202 13.5015 17.0246C15.4168 15.8896 17.332 14.7665 19.2355 13.6315C19.2473 13.6433 19.2591 13.6315 19.2709 13.6197Z" fill="#62688F"/>
        <path d="M12.0236 8.91429V8.89065V8.81971V0.236458C12.0236 0.20099 12.0118 0.177344 12.0355 0.141876C14.4355 4.12611 16.8355 8.09853 19.2236 12.0828C19.2473 12.1182 19.2828 12.1655 19.2946 12.2128C19.1291 12.1537 18.9754 12.0709 18.8217 12C18.6325 11.9172 18.4315 11.8227 18.2424 11.7399C18.1241 11.6808 17.9941 11.6335 17.8759 11.5744C17.6749 11.4798 17.4739 11.397 17.2729 11.3025C17.1547 11.2552 17.0365 11.1961 16.9182 11.137L16.1379 10.7823C16.0079 10.7232 15.8778 10.664 15.736 10.6049L15.1685 10.3567C15.0502 10.3094 14.932 10.2503 14.8138 10.1911L14.0335 9.83646C13.9034 9.77734 13.7734 9.71823 13.6315 9.65912L13.064 9.41084C12.934 9.35173 12.8158 9.29262 12.6857 9.2335C12.4611 9.1271 12.2365 9.02069 12 8.92611C12.0355 8.91429 12.0236 8.91429 12.0236 8.91429Z" fill="#62688F"/>
    </svg>
    <svg viewBox="0 0 24 24" id="link">
        <path d="M11.9411 0L9.75929 1.25455L3.81384 4.69091L1.63202 5.94545V17.8364L3.81384 19.0909L9.81384 22.5273L11.9957 23.7818L14.1775 22.5273L20.0684 19.0909L22.2502 17.8364V5.94545L20.0684 4.69091L14.1229 1.25455L11.9411 0ZM5.99566 15.3273V8.45455L11.9411 5.01818L17.8866 8.45455V15.3273L11.9411 18.7636L5.99566 15.3273Z" fill="#2A5ADA"/>
    </svg>
    <svg viewBox="0 0 24 24" id="usdc">
        <mask id="mask0_393_10021" style="mask-type:alpha" maskUnits="userSpaceOnUse" x="0" y="0" width="24" height="24">
        <path d="M0 6.10352e-05H24V24H0V6.10352e-05Z" fill="white"/>
        </mask>
        <g mask="url(#mask0_393_10021)">
        <path fill-rule="evenodd" clip-rule="evenodd" d="M12 6.10352e-05C18.6275 6.10352e-05 24 5.37252 24 12.0001C24 18.6271 18.6275 24.0001 12 24.0001C5.37245 24.0001 0 18.6271 0 12.0001C0 5.37252 5.37245 6.10352e-05 12 6.10352e-05Z" fill="#2775CA"/>
        </g>
        <path fill-rule="evenodd" clip-rule="evenodd" d="M9.75054 20.3433C9.75054 20.6255 9.5295 20.7859 9.2565 20.7007C5.62827 19.5432 2.99768 16.1411 2.99768 12.1268C2.99768 8.11266 5.62827 4.71039 9.2565 3.55293C9.5295 3.46825 9.75054 3.62807 9.75054 3.91034V4.60716C9.75054 4.79507 9.60491 5.01625 9.42586 5.07748C6.55527 6.13157 4.49891 8.88925 4.49891 12.122C4.49891 15.3548 6.55527 18.113 9.42586 19.1666C9.60491 19.2326 9.75054 19.4488 9.75054 19.6374V20.3433Z" fill="white"/>
        <path fill-rule="evenodd" clip-rule="evenodd" d="M12.7481 17.7502C12.7481 17.9575 12.5788 18.1269 12.3718 18.1269H11.6234C11.4164 18.1269 11.247 17.9575 11.247 17.7502V16.5645C9.60932 16.3435 8.80955 15.4256 8.593 14.1787C8.55523 13.9667 8.72459 13.7739 8.94114 13.7739H9.79764C9.97641 13.7739 10.1271 13.9011 10.1647 14.0796C10.3248 14.8232 10.753 15.3926 12.0658 15.3926C13.0352 15.3926 13.7225 14.8514 13.7225 14.0424C13.7225 13.2326 13.3176 12.9269 11.8964 12.6914C9.79764 12.4091 8.80477 11.7737 8.80477 10.1267C8.80477 8.85617 9.76491 7.86808 11.2518 7.65617V6.49381C11.2518 6.28667 11.4213 6.11717 11.6282 6.11717H12.3765C12.5835 6.11717 12.7529 6.28667 12.7529 6.49381V7.68917C13.9623 7.90599 14.7294 8.59258 14.9789 9.73135C15.0258 9.94817 14.8565 10.1501 14.6354 10.1501H13.8446C13.6753 10.1501 13.5341 10.0371 13.4825 9.87249C13.2707 9.14813 12.7529 8.83763 11.854 8.83763C10.8611 8.83763 10.3481 9.31749 10.3481 9.99031C10.3481 10.7009 10.6401 11.0583 12.1649 11.2799C14.2258 11.5622 15.2895 12.1503 15.2895 13.906C15.2895 15.2376 14.3012 16.3153 12.7529 16.5645V17.7502H12.7481Z" fill="white"/>
        <path fill-rule="evenodd" clip-rule="evenodd" d="M14.7436 20.7007C14.4708 20.7859 14.2495 20.6255 14.2495 20.3433V19.647C14.2495 19.4399 14.3766 19.247 14.5742 19.1761C17.4448 18.122 19.5011 15.3644 19.5011 12.1316C19.5011 8.89881 17.4448 6.14113 14.5742 5.08704C14.3954 5.02104 14.2495 4.80477 14.2495 4.61618V3.9199C14.2495 3.63763 14.4708 3.47304 14.7436 3.56195C18.3718 4.72009 21.0024 8.12222 21.0024 12.1364C20.9979 16.141 18.3718 19.5385 14.7436 20.7007Z" fill="white"/>
    </svg>
    <svg viewBox="0 0 24 24" id="wbtc">
        <g clip-path="url(#clip0_393_9892)">
        <path d="M19.5694 5.0368L18.9105 5.69578C20.4829 7.41534 21.3549 9.6611 21.3549 11.9912C21.3549 14.3213 20.4829 16.5671 18.9105 18.2867L19.5694 18.9456C21.3181 17.0488 22.289 14.5634 22.289 11.9835C22.289 9.40364 21.3181 6.91822 19.5694 5.02142V5.0368Z" fill="#5A5564"/>
        <path d="M5.71116 5.09389C7.43072 3.52146 9.67649 2.64946 12.0066 2.64946C14.3367 2.64946 16.5825 3.52146 18.302 5.09389L18.961 4.43491C17.0642 2.6862 14.5788 1.71533 11.9989 1.71533C9.41902 1.71533 6.93361 2.6862 5.0368 4.43491L5.71116 5.09389Z" fill="#5A5564"/>
        <path d="M5.09389 18.2932C3.52332 16.5741 2.65247 14.3297 2.65247 12.0011C2.65247 9.67252 3.52332 7.42813 5.09389 5.70895L4.43491 5.04997C2.6862 6.94677 1.71533 9.43219 1.71533 12.0121C1.71533 14.592 2.6862 17.0774 4.43491 18.9742L5.09389 18.2932Z" fill="#5A5564"/>
        <path d="M18.2932 18.9017C16.5736 20.4741 14.3279 21.3461 11.9978 21.3461C9.66764 21.3461 7.42188 20.4741 5.70231 18.9017L5.04333 19.5607C6.94014 21.3094 9.42555 22.2803 12.0054 22.2803C14.5853 22.2803 17.0708 21.3094 18.9676 19.5607L18.2932 18.9017Z" fill="#5A5564"/>
        <path d="M16.1603 9.8012C16.0285 8.42613 14.8424 7.96485 13.3421 7.82427V5.9308H12.1823V7.78912C11.877 7.78912 11.5651 7.78912 11.2553 7.78912V5.9308H10.1043V7.83745H7.75177V9.07852C7.75177 9.07852 8.60844 9.06315 8.59526 9.07852C8.74973 9.06153 8.90476 9.10516 9.02768 9.20023C9.15061 9.29529 9.23183 9.43436 9.25424 9.58813V14.8072C9.25094 14.8615 9.2368 14.9145 9.21265 14.9632C9.1885 15.0118 9.15484 15.0552 9.11366 15.0906C9.07325 15.1267 9.02595 15.1543 8.97461 15.1716C8.92328 15.189 8.86896 15.1958 8.81492 15.1916C8.8303 15.2048 7.97143 15.1916 7.97143 15.1916L7.75177 16.5777H10.0824V18.5151H11.2422V16.6063H12.1691V18.5063H13.3311V16.5909C15.2905 16.4723 16.6568 15.989 16.8281 14.1549C16.9665 12.6787 16.2724 12.0198 15.1631 11.754C15.8374 11.4223 16.2548 10.8072 16.1603 9.8012ZM14.5349 13.9264C14.5349 15.3674 12.0659 15.2026 11.2795 15.2026V12.6458C12.0659 12.648 14.5349 12.4217 14.5349 13.9264ZM13.9967 10.324C13.9967 11.6419 11.9363 11.4816 11.2817 11.4816V9.1576C11.9363 9.1576 13.9967 8.95112 13.9967 10.324Z" fill="#F09242"/>
        <path d="M11.9978 24C9.62462 23.9995 7.30485 23.2954 5.33179 21.9767C3.35874 20.658 1.82101 18.7838 0.913031 16.5912C0.00505138 14.3985 -0.232403 11.9859 0.230689 9.65835C0.693782 7.33079 1.83663 5.19279 3.51472 3.51469C5.19282 1.8366 7.33082 0.693751 9.65838 0.230659C11.986 -0.232434 14.3986 0.00502087 16.5912 0.913C18.7838 1.82098 20.658 3.35871 21.9767 5.33176C23.2955 7.30482 23.9996 9.62459 24 11.9978C24.0003 13.574 23.69 15.1349 23.087 16.5912C22.4839 18.0475 21.5999 19.3707 20.4853 20.4853C19.3707 21.5998 18.0475 22.4839 16.5912 23.087C15.1349 23.69 13.574 24.0003 11.9978 24ZM11.9978 0.935724C9.81137 0.937462 7.67453 1.58735 5.85735 2.80324C4.04018 4.01913 2.62426 5.74645 1.78855 7.76687C0.952839 9.78729 0.734858 12.0101 1.16216 14.1544C1.58945 16.2987 2.64285 18.2681 4.1892 19.8139C5.73555 21.3596 7.70544 22.4122 9.84989 22.8387C11.9943 23.2651 14.2171 23.0463 16.2372 22.2098C18.2572 21.3732 19.984 19.9566 21.1992 18.139C22.4143 16.3213 23.0634 14.1842 23.0643 11.9978C23.0648 10.5446 22.779 9.10547 22.223 7.76281C21.667 6.42016 20.8518 5.20026 19.824 4.17288C18.7962 3.1455 17.576 2.33079 16.2331 1.77534C14.8902 1.21988 13.451 0.93457 11.9978 0.935724Z" fill="#282138"/>
        </g>
        <defs>
        <clipPath id="clip0_393_9892">
        <rect width="24" height="24" fill="white"/>
        </clipPath>
        </defs>
    </svg>
    <svg viewBox="0 0 168.3 193.8" style="enable-background:new 0 0 168.3 193.8;" id="uni">
        <style type="text/css">
            .st0{fill:#FF007A;}
            .st1{fill-rule:evenodd;clip-rule:evenodd;fill:#FF007A;}
        </style>
        <path class="st0" d="M66,44.1c-2.1-0.3-2.2-0.4-1.2-0.5c1.9-0.3,6.3,0.1,9.4,0.8c7.2,1.7,13.7,6.1,20.6,13.8l1.8,2.1l2.6-0.4
            c11.1-1.8,22.5-0.4,32,4c2.6,1.2,6.7,3.6,7.2,4.2c0.2,0.2,0.5,1.5,0.7,2.8c0.7,4.7,0.4,8.2-1.1,10.9c-0.8,1.5-0.8,1.9-0.3,3.2
            c0.4,1,1.6,1.7,2.7,1.7c2.4,0,4.9-3.8,6.1-9.1l0.5-2.1l0.9,1c5.1,5.7,9.1,13.6,9.7,19.2l0.2,1.5l-0.9-1.3c-1.5-2.3-2.9-3.8-4.8-5.1
            c-3.4-2.3-7-3-16.5-3.5c-8.6-0.5-13.5-1.2-18.3-2.8c-8.2-2.7-12.4-6.2-22.1-19.1c-4.3-5.7-7-8.8-9.7-11.4
            C79.6,48.3,73.7,45.3,66,44.1z"/>
        <path class="st0" d="M140.5,56.8c0.2-3.8,0.7-6.3,1.8-8.6c0.4-0.9,0.8-1.7,0.9-1.7c0.1,0-0.1,0.7-0.4,1.5c-0.8,2.2-0.9,5.3-0.4,8.8
            c0.7,4.5,1,5.1,5.8,10c2.2,2.3,4.8,5.2,5.8,6.4l1.7,2.2l-1.7-1.6c-2.1-2-6.9-5.8-8-6.3c-0.7-0.4-0.8-0.4-1.3,0.1
            c-0.4,0.4-0.5,1-0.5,3.9c-0.1,4.5-0.7,7.3-2.2,10.2c-0.8,1.5-0.9,1.2-0.2-0.5c0.5-1.3,0.6-1.9,0.6-6.2c0-8.7-1-10.8-7.1-14.3
            c-1.5-0.9-4.1-2.2-5.6-2.9c-1.6-0.7-2.8-1.3-2.7-1.3c0.2-0.2,6.1,1.5,8.4,2.5c3.5,1.4,4.1,1.5,4.5,1.4
            C140.2,60.1,140.4,59.3,140.5,56.8z"/>
        <path class="st0" d="M70.1,71.7c-4.2-5.8-6.9-14.8-6.3-21.5l0.2-2.1l1,0.2c1.8,0.3,4.9,1.5,6.4,2.4c4,2.4,5.8,5.7,7.5,13.9
            c0.5,2.4,1.2,5.2,1.5,6.1c0.5,1.5,2.4,5,4,7.2c1.1,1.6,0.4,2.4-2.1,2.2C78.5,79.7,73.4,76.2,70.1,71.7z"/>
        <path class="st0" d="M135.4,115.2c-19.8-8-26.8-14.9-26.8-26.6c0-1.7,0.1-3.1,0.1-3.1c0.1,0,0.8,0.6,1.7,1.3c4,3.2,8.5,4.6,21,6.4
            c7.3,1.1,11.5,1.9,15.3,3.2c12.1,4,19.6,12.2,21.4,23.3c0.5,3.2,0.2,9.3-0.6,12.5c-0.7,2.5-2.7,7.1-3.2,7.2c-0.1,0-0.3-0.5-0.3-1.3
            c-0.2-4.2-2.3-8.2-5.8-11.3C154,123.2,148.6,120.5,135.4,115.2z"/>
        <path class="st0" d="M121.4,118.5c-0.2-1.5-0.7-3.4-1-4.2l-0.5-1.5l0.9,1.1c1.3,1.5,2.3,3.3,3.2,5.8c0.7,1.9,0.7,2.5,0.7,5.6
            c0,3-0.1,3.7-0.7,5.4c-1,2.7-2.2,4.6-4.2,6.7c-3.6,3.7-8.3,5.7-15,6.6c-1.2,0.1-4.6,0.4-7.6,0.6c-7.5,0.4-12.5,1.2-17,2.8
            c-0.6,0.2-1.2,0.4-1.3,0.3c-0.2-0.2,2.9-2,5.4-3.2c3.5-1.7,7.1-2.6,15-4c3.9-0.6,7.9-1.4,8.9-1.8C118.1,135.6,123,127.9,121.4,118.5
            z"/>
        <path class="st0" d="M130.5,134.6c-2.6-5.7-3.2-11.1-1.8-16.2c0.2-0.5,0.4-1,0.6-1c0.2,0,0.8,0.3,1.4,0.7c1.2,0.8,3.7,2.2,10.1,5.7
            c8.1,4.4,12.7,7.8,15.9,11.7c2.8,3.4,4.5,7.3,5.3,12.1c0.5,2.7,0.2,9.2-0.5,11.9c-2.2,8.5-7.2,15.3-14.5,19.2c-1.1,0.6-2,1-2.1,1
            c-0.1,0,0.3-1,0.9-2.2c2.4-5.1,2.7-10,0.9-15.5c-1.1-3.4-3.4-7.5-8-14.4C133.2,139.6,131.9,137.5,130.5,134.6z"/>
        <path class="st0" d="M56,165.2c7.4-6.2,16.5-10.6,24.9-12c3.6-0.6,9.6-0.4,12.9,0.5c5.3,1.4,10.1,4.4,12.6,8.1
            c2.4,3.6,3.5,6.7,4.6,13.6c0.4,2.7,0.9,5.5,1,6.1c0.8,3.6,2.4,6.4,4.4,7.9c3.1,2.3,8.5,2.4,13.8,0.4c0.9-0.3,1.7-0.6,1.7-0.5
            c0.2,0.2-2.5,2-4.3,2.9c-2.5,1.3-4.5,1.7-7.2,1.7c-4.8,0-8.9-2.5-12.2-7.5c-0.7-1-2.1-3.9-3.3-6.6c-3.5-8.1-5.3-10.5-9.4-13.2
            c-3.6-2.3-8.2-2.8-11.7-1.1c-4.6,2.2-5.8,8.1-2.6,11.7c1.3,1.5,3.7,2.7,5.7,3c3.7,0.5,6.9-2.4,6.9-6.1c0-2.4-0.9-3.8-3.3-4.9
            c-3.2-1.4-6.7,0.2-6.6,3.3c0,1.3,0.6,2.1,1.9,2.7c0.8,0.4,0.8,0.4,0.2,0.3c-2.9-0.6-3.6-4.2-1.3-6.5c2.8-2.8,8.7-1.6,10.7,2.3
            c0.8,1.6,0.9,4.8,0.2,6.8c-1.7,4.4-6.5,6.7-11.4,5.4c-3.3-0.9-4.7-1.8-8.7-5.9c-7-7.2-9.7-8.6-19.7-10.1l-1.9-0.3L56,165.2z"/>
        <path class="st1" d="M3.4,4.3c23.3,28.3,59.2,72.3,61,74.7c1.5,2,0.9,3.9-1.6,5.3c-1.4,0.8-4.3,1.6-5.7,1.6c-1.6,0-3.5-0.8-4.8-2.1
            c-0.9-0.9-4.8-6.6-13.6-20.3c-6.7-10.5-12.4-19.2-12.5-19.3C25.8,44,25.8,44,38,65.8C45.7,79.5,48.2,84.4,48.2,85c0,1.3-0.4,2-2,3.8
            c-2.7,3-3.9,6.4-4.8,13.5c-1,7.9-3.7,13.5-11.4,23c-4.5,5.6-5.2,6.6-6.3,8.9c-1.4,2.8-1.8,4.4-2,8c-0.2,3.8,0.2,6.2,1.3,9.8
            c1,3.2,2.1,5.3,4.8,9.4c2.3,3.6,3.7,6.3,3.7,7.3c0,0.8,0.2,0.8,3.8,0c8.6-2,15.7-5.4,19.6-9.6c2.4-2.6,3-4,3-7.6
            c0-2.3-0.1-2.8-0.7-4.2c-1-2.2-2.9-4-7-6.8c-5.4-3.7-7.7-6.7-8.3-10.7c-0.5-3.4,0.1-5.7,3.1-12c3.1-6.5,3.9-9.2,4.4-15.8
            c0.3-4.2,0.8-5.9,2-7.2c1.3-1.4,2.4-1.9,5.5-2.3c5.1-0.7,8.4-2,11-4.5c2.3-2.1,3.3-4.2,3.4-7.3l0.1-2.3L70.1,77C65.4,71.6,0.3,0,0,0
            C-0.1,0,1.5,1.9,3.4,4.3z M34.1,146.5c1.1-1.9,0.5-4.3-1.3-5.5c-1.7-1.1-4.3-0.6-4.3,0.9c0,0.4,0.2,0.8,0.8,1c0.9,0.5,1,1,0.3,2.1
            c-0.7,1.1-0.7,2.1,0.2,2.8C31.2,148.9,33.1,148.3,34.1,146.5z"/>
        <path class="st1" d="M74.6,93.9c-2.4,0.7-4.7,3.3-5.4,5.9c-0.4,1.6-0.2,4.5,0.5,5.4c1.1,1.4,2.1,1.8,4.9,1.8
            c5.5,0,10.2-2.4,10.7-5.3c0.5-2.4-1.6-5.7-4.5-7.2C79.3,93.7,76.2,93.4,74.6,93.9z M81,98.9c0.8-1.2,0.5-2.5-1-3.4
            c-2.7-1.7-6.8-0.3-6.8,2.3c0,1.3,2.1,2.7,4.1,2.7C78.6,100.5,80.4,99.7,81,98.9z"/>
    </svg>
    <svg viewBox="0 0 24 24" id="weth">
        <path d="M12.036 0.130042V0.141865C12.0478 0.200978 12.0478 0.271914 12.0478 0.34285V8.86699C12.036 8.91428 12.0005 8.9261 11.965 8.94975C11.7168 9.06797 11.4803 9.17438 11.232 9.28078C10.8892 9.43448 10.5345 9.59999 10.1916 9.75369L8.95026 10.3212C8.6074 10.4749 8.26455 10.6286 7.93351 10.7823C7.53154 10.9714 7.11775 11.1488 6.71578 11.3379C6.37292 11.4916 6.03006 11.6571 5.67538 11.8108C5.39164 11.9409 5.1079 12.0591 4.83598 12.1892C4.81233 12.201 4.78868 12.2128 4.76504 12.2128C4.75322 12.2128 4.75322 12.2128 4.74139 12.201L5.06061 11.669C5.67538 10.6522 6.27834 9.64728 6.89312 8.63054C7.54336 7.54285 8.20543 6.45517 8.85568 5.36748C9.45864 4.36255 10.0734 3.35763 10.6764 2.3527C11.1138 1.6197 11.5631 0.886692 12.0005 0.153687C12.0123 0.130042 12.0242 0.118219 12.0242 0.094574H12.036C12.0242 0.106397 12.036 0.118219 12.036 0.130042Z" fill="#F04086"/>
        <path d="M19.2946 12.201L19.3064 12.2128L17.5685 13.2414L12.1064 16.469C12.0827 16.4808 12.0591 16.4926 12.0473 16.5044C12.0118 16.5044 12.0118 16.469 12.0118 16.4571V16.3507V9.04432C12.0118 9.00885 12.0118 8.96156 12.0236 8.9261C12.0355 8.87881 12.0709 8.89063 12.1064 8.90245C12.2601 8.97339 12.4256 9.04432 12.5793 9.11526C13.0404 9.32807 13.5015 9.54087 13.9625 9.74186C14.3645 9.9192 14.7547 10.1084 15.1566 10.2857C15.5586 10.463 15.9606 10.6522 16.3625 10.8295C16.7054 10.9832 17.0601 11.1488 17.4029 11.3025C17.7458 11.4561 18.1005 11.6217 18.4433 11.7754C18.7153 11.8936 18.9872 12.0236 19.2591 12.1419C19.2591 12.1773 19.2709 12.1891 19.2946 12.201Z" fill="#F04086"/>
        <path d="M12.0355 23.8463C12.0355 23.8581 12.0236 23.8699 12.0236 23.8818H12.0118C12.0118 23.8581 11.9882 23.8463 11.9763 23.8226C11.2433 22.7941 10.5103 21.7537 9.77733 20.7251C9.0325 19.6729 8.27585 18.6089 7.53102 17.5566C6.80984 16.5399 6.07684 15.5113 5.35565 14.4946C5.16649 14.2226 4.97733 13.9625 4.78817 13.6906C4.77634 13.667 4.76452 13.6552 4.74088 13.6197C4.77634 13.6197 4.79999 13.6433 4.81181 13.6552C5.84038 14.2581 6.85713 14.8611 7.8857 15.464C9.06797 16.1616 10.2384 16.8591 11.4207 17.5566L12.0236 17.9113C12.0473 17.935 12.0473 17.9586 12.0473 17.9823V23.6808C12.0473 23.7399 12.0473 23.799 12.0355 23.8463Z" fill="#F04086"/>
        <path d="M4.72906 12.2246V12.2128C5.10739 12.0473 5.47389 11.8699 5.85222 11.7044C6.33695 11.4798 6.82168 11.267 7.3064 11.0423C7.67291 10.8768 8.05123 10.6995 8.41773 10.534C8.96158 10.2857 9.4936 10.0492 10.0374 9.80097C10.4039 9.63545 10.7704 9.46994 11.1488 9.2926C11.4089 9.17437 11.6808 9.05614 11.9409 8.93792C11.9645 8.92609 12 8.91427 12.0118 8.89062C12.0236 8.89062 12.0236 8.90245 12.0118 8.91427V16.4217C12.0118 16.4571 12 16.4926 12.0236 16.5162C12 16.5517 11.9764 16.5162 11.9645 16.5044C11.8581 16.4453 11.7517 16.3862 11.6453 16.3153C9.36355 14.9675 7.06995 13.6079 4.78818 12.2601C4.77636 12.2483 4.75271 12.2364 4.72906 12.2246Z" fill="#F04086"/>
        <path d="M19.2709 13.6197H19.2828C19.2828 13.6433 19.2591 13.667 19.2473 13.6906C17.0719 16.7527 14.8966 19.8266 12.7212 22.8887C12.4966 23.2079 12.2601 23.5271 12.0355 23.8463C12.0237 23.8345 12.0237 23.8226 12.0237 23.8108V23.7399V18.0059V17.8995C12.5202 17.6039 13.0049 17.3202 13.5015 17.0246C15.4168 15.8896 17.332 14.7665 19.2355 13.6315C19.2473 13.6433 19.2591 13.6315 19.2709 13.6197Z" fill="#F04086"/>
        <path d="M12.0236 8.91429V8.89065V8.81971V0.236458C12.0236 0.20099 12.0118 0.177344 12.0355 0.141876C14.4355 4.12611 16.8355 8.09853 19.2236 12.0828C19.2473 12.1182 19.2828 12.1655 19.2946 12.2128C19.1291 12.1537 18.9754 12.0709 18.8217 12C18.6325 11.9172 18.4315 11.8227 18.2424 11.7399C18.1241 11.6808 17.9941 11.6335 17.8759 11.5744C17.6749 11.4798 17.4739 11.397 17.2729 11.3025C17.1547 11.2552 17.0365 11.1961 16.9182 11.137L16.1379 10.7823C16.0079 10.7232 15.8778 10.664 15.736 10.6049L15.1685 10.3567C15.0502 10.3094 14.932 10.2503 14.8138 10.1911L14.0335 9.83646C13.9034 9.77734 13.7734 9.71823 13.6315 9.65912L13.064 9.41084C12.934 9.35173 12.8158 9.29262 12.6857 9.2335C12.4611 9.1271 12.2365 9.02069 12 8.92611C12.0355 8.91429 12.0236 8.91429 12.0236 8.91429Z" fill="#F04086"/>
    </svg>



</svg>